<?xml version="1.0" encoding="iso-8859-1"?>
<!-- Uploaded to: SVG Repo, www.svgrepo.com, Generator: SVG Repo Mixer Tools -->
<!DOCTYPE svg PUBLIC "-//W3C//DTD SVG 1.1//EN" "http://www.w3.org/Graphics/SVG/1.1/DTD/svg11.dtd">
<svg fill="currentColor" height="800px" width="800px" version="1.1" id="Capa_1" xmlns="http://www.w3.org/2000/svg"
	xmlns:xlink="http://www.w3.org/1999/xlink" viewBox="0 0 297 297" xml:space="preserve">
	<path d="M287.631,255.072h-21.549V107.821c0-5.174-4.195-9.369-9.369-9.369h-79.39c3.492-6.535,4.492-14.421,2.155-22.074
	c-1.416-4.63-3.882-8.68-7.087-11.931c0.949-2.519,2.869-6.464,6.52-10.286c8.143-8.524,20.867-12.628,37.815-12.206
	c5.201,0.148,9.471-3.958,9.601-9.131c0.13-5.174-3.959-9.472-9.131-9.602c-28.83-0.707-44.626,9.969-52.826,19.065
	c-4.451,4.938-7.191,9.932-8.856,13.886c-1.16-0.142-2.333-0.236-3.526-0.236c-2.817,0-5.621,0.42-8.332,1.248
	c-7.332,2.241-13.342,7.226-16.921,14.035c-3.565,6.779-4.291,14.562-2.044,21.907c0.574,1.88,1.341,3.65,2.239,5.324H40.287
	c-5.174,0-9.369,4.195-9.369,9.369v147.251H9.369c-5.174,0-9.369,4.195-9.369,9.369s4.195,9.369,9.369,9.369h278.262
	c5.174,0,9.369-4.195,9.369-9.369S292.805,255.072,287.631,255.072z M143.318,79.94c1.235-2.35,3.301-4.066,5.813-4.835
	c0.934-0.285,1.895-0.43,2.855-0.43c4.343,0,8.28,2.952,9.571,7.178c1.625,5.322-1.303,10.951-6.521,12.548
	c-0.934,0.286-1.895,0.431-2.854,0.431c-4.343,0-8.279-2.954-9.573-7.185C141.815,85.057,142.068,82.319,143.318,79.94z
	 M154.59,155.76c0,3.555-2.789,6.559-6.09,6.559c-3.301,0-6.09-3.004-6.09-6.559v-16.63c0-5.174-4.195-9.369-9.369-9.369
	c-5.174,0-9.369,4.195-9.369,9.369c0,3.555-2.789,6.559-6.09,6.559c-3.301,0-6.09-3.004-6.09-6.559v-21.94h74.016v23.11
	c0,3.555-2.789,6.559-6.09,6.559c-3.301,0-6.09-3.004-6.09-6.559c0-5.174-4.195-9.369-9.369-9.369c-5.174,0-9.369,4.195-9.369,9.369
	V155.76z M247.344,186.21v20.455H49.656V186.21H247.344z M49.656,225.403h197.688v27.639H49.656V225.403z M247.344,167.472h-76.848
	c0.511-0.992,0.964-2.02,1.344-3.084c2.391,0.782,4.936,1.21,7.578,1.21c13.69,0,24.828-11.349,24.828-25.297v-23.11h43.098V167.472
	z M92.754,117.19v21.94c0,13.948,11.138,25.297,24.828,25.297c2.514,0,4.938-0.387,7.227-1.097c0.444,1.44,1.017,2.824,1.695,4.142
	H49.656V117.19H92.754z" />
</svg>